<svg width="19" height="19" viewBox="0 0 19 19" fill="none" xmlns="http://www.w3.org/2000/svg">
<path d="M12.2708 14.25C12.052 14.25 11.875 14.427 11.875 14.6458V17.4167C11.875 17.8531 11.5198 18.2083 11.0833 18.2083H1.58335C1.14694 18.2083 0.791691 17.8531 0.791691 17.4167V1.58335C0.791691 1.14694 1.14694 0.791691 1.58335 0.791691H11.0833C11.5198 0.791691 11.875 1.14694 11.875 1.58335V4.35419C11.875 4.57299 12.052 4.75004 12.2708 4.75004C12.4896 4.75004 12.6667 4.57299 12.6667 4.35419V1.58335C12.6667 0.710088 11.9566 0 11.0833 0H1.58335C0.710088 0 0 0.710088 0 1.58335V17.4167C0 18.2899 0.710088 19 1.58335 19H11.0833C11.9566 19 12.6667 18.2899 12.6667 17.4167V14.6458C12.6667 14.427 12.4896 14.25 12.2708 14.25Z" fill="#202224"/>
<path d="M18.8717 9.2081L14.1217 4.85394C13.9597 4.70628 13.7104 4.71749 13.5623 4.87829C13.4147 5.03949 13.4255 5.28998 13.5867 5.43764L17.5867 9.10412H5.14585C4.92705 9.10412 4.75 9.28117 4.75 9.49996C4.75 9.71876 4.92705 9.89581 5.14585 9.89581H17.5867L13.5867 13.5623C13.4255 13.7099 13.4147 13.9604 13.5624 14.1216C13.6404 14.2067 13.7471 14.25 13.8542 14.25C13.9497 14.25 14.0456 14.2156 14.1217 14.146L18.8717 9.79183C18.9536 9.71683 19 9.61092 19 9.49996C19 9.38901 18.9536 9.28309 18.8717 9.2081Z" fill="#202224"/>
</svg>
