<svg width="20" height="20" viewBox="0 0 20 20" fill="none" xmlns="http://www.w3.org/2000/svg">
<path d="M18.6663 0.333313H1.33367C0.59832 0.333313 0 0.931672 0 1.66698V12.6666C0 12.8506 0.149336 13 0.33332 13H19.6666C19.8506 13 20 12.8506 20 12.6666V1.66698C20 0.931672 19.4017 0.333313 18.6663 0.333313ZM19.3333 12.3333H0.66668V1.66698C0.66668 1.29898 0.966016 0.999993 1.33367 0.999993H18.6663C19.034 0.999993 19.3333 1.29898 19.3333 1.66698V12.3333Z" fill="#202224"/>
<path d="M19.6667 12.3333H0.33332C0.149336 12.3333 0 12.4826 0 12.6666V14.333C0 15.0683 0.59832 15.6666 1.33367 15.6666H18.6663C19.4017 15.6666 20 15.0683 20 14.333V12.6666C20 12.4826 19.8507 12.3333 19.6667 12.3333ZM19.3333 14.333C19.3333 14.701 19.034 15 18.6663 15H1.33367C0.966016 15 0.66668 14.701 0.66668 14.333V13H19.3334V14.333H19.3333Z" fill="#202224"/>
<path d="M11.0001 13.6667H9.00007C8.81608 13.6667 8.66675 13.816 8.66675 14C8.66675 14.184 8.81608 14.3333 9.00007 14.3333H11.0001C11.1841 14.3333 11.3334 14.184 11.3334 14C11.3334 13.816 11.1841 13.6667 11.0001 13.6667Z" fill="#202224"/>
<path d="M18.3333 1.66669H1.66669C1.48271 1.66669 1.33337 1.81602 1.33337 2.00001V12.6667C1.33337 12.8507 1.48271 13 1.66669 13H18.3334C18.5174 13 18.6667 12.8507 18.6667 12.6667V2.00001C18.6667 1.81602 18.5174 1.66669 18.3333 1.66669ZM18 12.3333H2.00001V2.33333H18V12.3333Z" fill="#202224"/>
<path d="M14.3333 17.6666H5.66663C5.1153 17.6666 4.66663 18.1153 4.66663 18.6666C4.66663 19.218 5.1153 19.6666 5.66663 19.6666H14.3333C14.8846 19.6666 15.3333 19.218 15.3333 18.6666C15.3333 18.1153 14.8846 17.6666 14.3333 17.6666ZM14.3333 18.9999H5.66663C5.48264 18.9999 5.33331 18.8503 5.33331 18.6666C5.33331 18.483 5.48264 18.3333 5.66663 18.3333H14.3333C14.5173 18.3333 14.6666 18.483 14.6666 18.6666C14.6666 18.8503 14.5173 18.9999 14.3333 18.9999Z" fill="#202224"/>
<path d="M13.6666 17.6667C12.5606 17.6667 12 16.8817 12 15.3334C12 15.1494 11.8506 15.0001 11.6666 15.0001H8.33332C8.14933 15.0001 8 15.1494 8 15.3334C8 16.8817 7.43934 17.6667 6.33332 17.6667C6.14934 17.6667 6 17.816 6 18C6 18.184 6.14934 18.3333 6.33332 18.3333H13.6666C13.8506 18.3333 14 18.184 14 18C14 17.816 13.8506 17.6667 13.6666 17.6667ZM7.95695 17.6667C8.3673 17.2121 8.60894 16.535 8.65762 15.6667H11.3426C11.3909 16.535 11.6326 17.2121 12.0433 17.6667H7.95695Z" fill="#202224"/>
<path d="M15.9281 10.1547L15.1234 9.35L15.5711 8.90235C15.6541 8.81934 15.6874 8.69867 15.6587 8.585C15.6301 8.47133 15.5437 8.38133 15.4314 8.34735L12.0981 7.34735C11.9804 7.31199 11.8534 7.34434 11.7667 7.43102C11.6798 7.5177 11.6478 7.645 11.6831 7.76235L12.6831 11.0957C12.7167 11.2083 12.8071 11.2947 12.9207 11.3233C13.034 11.3513 13.1551 11.3186 13.2381 11.2357L13.7094 10.764L14.514 11.569C14.5764 11.6316 14.6614 11.6666 14.7497 11.6666C14.838 11.6666 14.923 11.6316 14.9854 11.569L15.928 10.626C16.0584 10.4957 16.0584 10.285 15.9281 10.1547ZM14.7497 10.862L14.0171 10.129C13.9321 10.044 13.8207 10.0016 13.7094 10.0016C13.5977 10.0016 13.4864 10.0443 13.4017 10.1286L13.1611 10.3693L12.4994 8.16363L14.7051 8.82531L14.4471 9.08332C14.376 9.15465 14.3371 9.24934 14.3371 9.35C14.3371 9.45102 14.3764 9.54633 14.4477 9.61699L15.221 10.3903L14.7497 10.862Z" fill="#202224"/>
<path d="M14 3H4.66669C4.48271 3 4.33337 3.14934 4.33337 3.33332V5C4.33337 5.18398 4.48271 5.33332 4.66669 5.33332H14C14.184 5.33332 14.3333 5.18398 14.3333 5V3.33332C14.3333 3.14934 14.184 3 14 3ZM13.6667 4.66668H5.00001V3.66668H13.6667V4.66668Z" fill="#202224"/>
<path d="M8.66663 6.66669H5.99995C5.81596 6.66669 5.66663 6.81602 5.66663 7.00001V8.33333C5.66663 8.51731 5.81596 8.66665 5.99995 8.66665H8.66663C8.85061 8.66665 8.99995 8.51731 8.99995 8.33333V7.00001C8.99995 6.81602 8.85061 6.66669 8.66663 6.66669ZM8.33327 8.00001H6.33327V7.33333H8.33327V8.00001Z" fill="#202224"/>
<path d="M14 3H4.66669C4.48271 3 4.33337 3.14934 4.33337 3.33332V9.66664C4.33337 9.85062 4.48271 9.99996 4.66669 9.99996H12.602C12.7077 9.99996 12.8067 9.95031 12.8694 9.86562C12.9324 9.78097 12.9517 9.67164 12.9214 9.57062L12.4994 8.16363L13.9044 8.58531C14.0054 8.61566 14.1147 8.59633 14.199 8.53332C14.2837 8.47066 14.3334 8.37133 14.3334 8.26597V3.33332C14.3333 3.14934 14.184 3 14 3ZM13.6667 7.81801L12.0977 7.34734C11.98 7.31199 11.853 7.34433 11.7663 7.43101C11.6793 7.51801 11.6474 7.645 11.6827 7.76269L12.154 9.33336H5.00001V3.66668H13.6667V7.81801Z" fill="#202224"/>
</svg>
