<svg width="20" height="20" viewBox="0 0 20 20" fill="none" xmlns="http://www.w3.org/2000/svg">
<path d="M16.173 5.81055C16.3887 5.81055 16.5636 5.63566 16.5636 5.41992V1.17188C16.5636 0.525703 16.0379 0 15.3917 0H1.17297C0.526802 0 0.00109863 0.525703 0.00109863 1.17188V18.8281C0.00109863 19.4743 0.526802 20 1.17297 20H15.3917C16.0379 20 16.5636 19.4743 16.5636 18.8281V15.9503C16.5636 15.7346 16.3887 15.5597 16.173 15.5597C15.9573 15.5597 15.7823 15.7346 15.7823 15.9503V18.8281C15.7823 19.0435 15.6071 19.2188 15.3917 19.2188H1.17297C0.957583 19.2188 0.782349 19.0435 0.782349 18.8281V1.17188C0.782349 0.956484 0.957583 0.78125 1.17297 0.78125H15.3917C15.6071 0.78125 15.7823 0.956484 15.7823 1.17188V5.41992C15.7823 5.63566 15.9573 5.81055 16.173 5.81055Z" fill="#202224"/>
<path d="M8.28149 2.10938C6.29989 2.10938 4.68774 3.72152 4.68774 5.70312C4.68774 6.73113 5.12173 7.65957 5.81595 8.3152C5.82895 8.3291 5.84278 8.34227 5.8579 8.35426C6.49739 8.93937 7.34845 9.29683 8.28145 9.29683C9.21446 9.29683 10.0655 8.93934 10.705 8.35426C10.7201 8.34227 10.734 8.32906 10.747 8.3152C11.4413 7.65957 11.8752 6.73113 11.8752 5.70312C11.8752 3.72152 10.2631 2.10938 8.28149 2.10938ZM8.28149 8.51562C7.64364 8.51562 7.05497 8.30187 6.58263 7.94266C6.92595 7.33387 7.56661 6.95312 8.28149 6.95312C8.99637 6.95312 9.63704 7.33387 9.98036 7.94266C9.50798 8.30187 8.91934 8.51562 8.28149 8.51562ZM7.65649 5.54687V5.29297C7.65649 4.94836 7.93688 4.66797 8.28149 4.66797C8.6261 4.66797 8.90649 4.94836 8.90649 5.29297V5.54687C8.90649 5.89148 8.6261 6.17187 8.28149 6.17187C7.93688 6.17187 7.65649 5.89148 7.65649 5.54687ZM10.5448 7.37043C10.2567 6.94316 9.85743 6.61086 9.39387 6.4057C9.57786 6.16793 9.68774 5.87008 9.68774 5.54687V5.29297C9.68774 4.51754 9.05692 3.88672 8.28149 3.88672C7.50606 3.88672 6.87524 4.51754 6.87524 5.29297V5.54687C6.87524 5.87008 6.98513 6.16793 7.16911 6.4057C6.70556 6.61086 6.3063 6.94316 6.01821 7.37043C5.67333 6.90352 5.46899 6.32684 5.46899 5.70312C5.46899 4.1523 6.73067 2.89062 8.28149 2.89062C9.83231 2.89062 11.094 4.1523 11.094 5.70312C11.094 6.32684 10.8897 6.90352 10.5448 7.37043Z" fill="#202224"/>
<path d="M10.3909 17.1094H8.28149C8.06579 17.1094 7.89087 17.2843 7.89087 17.5C7.89087 17.7157 8.06579 17.8906 8.28149 17.8906H10.3909C10.6066 17.8906 10.7815 17.7157 10.7815 17.5C10.7815 17.2843 10.6066 17.1094 10.3909 17.1094Z" fill="#202224"/>
<path d="M10.3909 14.9219H4.84399C4.62829 14.9219 4.45337 15.0968 4.45337 15.3125C4.45337 15.5282 4.62829 15.7031 4.84399 15.7031H10.3909C10.6066 15.7031 10.7815 15.5282 10.7815 15.3125C10.7815 15.0968 10.6066 14.9219 10.3909 14.9219Z" fill="#202224"/>
<path d="M10.3909 12.7344H4.84399C4.62829 12.7344 4.45337 12.9093 4.45337 13.125C4.45337 13.3407 4.62829 13.5156 4.84399 13.5156H10.3909C10.6066 13.5156 10.7815 13.3407 10.7815 13.125C10.7815 12.9093 10.6066 12.7344 10.3909 12.7344Z" fill="#202224"/>
<path d="M3.45182 10.6613C3.3792 10.5887 3.27842 10.5469 3.17529 10.5469C3.07252 10.5469 2.97174 10.5887 2.89912 10.6613C2.82646 10.734 2.78467 10.8348 2.78467 10.9375C2.78467 11.0402 2.82643 11.141 2.89912 11.2137C2.97217 11.2863 3.07252 11.3281 3.17529 11.3281C3.27842 11.3281 3.37881 11.2863 3.45182 11.2137C3.52447 11.141 3.56631 11.0402 3.56631 10.9375C3.56631 10.8348 3.52451 10.734 3.45182 10.6613Z" fill="#202224"/>
<path d="M3.45182 12.8488C3.37881 12.7762 3.27842 12.7344 3.17529 12.7344C3.07252 12.7344 2.97217 12.7762 2.89912 12.8488C2.82646 12.9215 2.78467 13.0223 2.78467 13.125C2.78467 13.2277 2.82643 13.3285 2.89912 13.4012C2.97217 13.4738 3.07252 13.5156 3.17529 13.5156C3.27842 13.5156 3.37881 13.4738 3.45182 13.4012C3.52447 13.3285 3.56631 13.2277 3.56631 13.125C3.56631 13.0223 3.52451 12.9215 3.45182 12.8488Z" fill="#202224"/>
<path d="M3.45182 15.0363C3.37881 14.9637 3.27842 14.9219 3.17529 14.9219C3.07252 14.9219 2.97217 14.9637 2.89912 15.0363C2.82646 15.109 2.78467 15.2098 2.78467 15.3125C2.78467 15.4152 2.82643 15.516 2.89912 15.5887C2.97174 15.6613 3.07252 15.7031 3.17529 15.7031C3.27842 15.7031 3.3792 15.6613 3.45182 15.5887C3.52447 15.516 3.56631 15.4152 3.56631 15.3125C3.56631 15.2098 3.52451 15.109 3.45182 15.0363Z" fill="#202224"/>
<path d="M10.3909 10.5469H4.84399C4.62829 10.5469 4.45337 10.7218 4.45337 10.9375C4.45337 11.1532 4.62829 11.3281 4.84399 11.3281H10.3909C10.6066 11.3281 10.7815 11.1532 10.7815 10.9375C10.7815 10.7218 10.6066 10.5469 10.3909 10.5469Z" fill="#202224"/>
<path d="M19.1798 5.09062C18.8003 4.87152 18.3582 4.81331 17.9349 4.92671C17.5116 5.04015 17.1578 5.31163 16.9387 5.69113L12.023 14.2053C11.9961 14.252 11.979 14.3037 11.9731 14.3573L11.627 17.4567C11.6099 17.6109 11.6856 17.7607 11.8199 17.8383C11.8806 17.8733 11.948 17.8907 12.0152 17.8907C12.0969 17.8907 12.1783 17.8651 12.2469 17.8146L14.758 15.9652C14.8014 15.9332 14.8377 15.8926 14.8646 15.846L19.7803 7.33179C20.2326 6.54835 19.9633 5.54296 19.1798 5.09062ZM12.5025 16.656L12.6832 15.0376L13.8138 15.6903L12.5025 16.656ZM14.3834 15.117L12.8949 14.2576L16.8396 7.42523L18.3281 8.2846L14.3834 15.117ZM19.1037 6.94113L18.7187 7.60804L17.2302 6.74866L17.6153 6.08175C17.73 5.88296 17.9153 5.74077 18.137 5.68136C18.3588 5.62191 18.5904 5.65245 18.7892 5.76722C18.9879 5.88199 19.1301 6.0673 19.1895 6.28902C19.249 6.51073 19.2185 6.74234 19.1037 6.94113Z" fill="#202224"/>
</svg>
